<?xml version="1.0" encoding="UTF-8"?>
<svg xmlns="http://www.w3.org/2000/svg" xmlns:xlink="http://www.w3.org/1999/xlink" width="48px" height="48px" viewBox="0 0 48 48" version="1.1">
<g id="surface1">
<path style="fill-rule:nonzero;fill:rgb(5.882353%,5.882353%,5.882353%);fill-opacity:1;stroke-width:1.464;stroke-linecap:butt;stroke-linejoin:miter;stroke:rgb(100%,100%,100%);stroke-opacity:1;stroke-miterlimit:4;" d="M 15 19.999219 C 15 21.65625 13.657031 22.999219 12 22.999219 C 10.342969 22.999219 9 21.65625 9 19.999219 C 9 18.342188 10.342969 16.999219 12 16.999219 C 13.657031 16.999219 15 18.342188 15 19.999219 Z M 10.971094 19.999219 C 10.971094 20.56875 11.432812 21.028125 12 21.028125 C 12.567187 21.028125 13.028906 20.56875 13.028906 19.999219 C 13.028906 19.432031 12.567187 18.972656 12 18.972656 C 11.432812 18.972656 10.971094 19.432031 10.971094 19.999219 Z M 10.971094 19.999219 " transform="matrix(1.666667,0,0,1.666667,4,4)"/>
<path style="fill-rule:nonzero;fill:rgb(5.882353%,5.882353%,5.882353%);fill-opacity:1;stroke-width:1.464;stroke-linecap:butt;stroke-linejoin:miter;stroke:rgb(100%,100%,100%);stroke-opacity:1;stroke-miterlimit:4;" d="M 15 12 C 15 13.657031 13.657031 15 12 15 C 10.342969 15 9 13.657031 9 12 C 9 10.342969 10.342969 9 12 9 C 13.657031 9 15 10.342969 15 12 Z M 10.971094 12 C 10.971094 12.567187 11.432812 13.028906 12 13.028906 C 12.567187 13.028906 13.028906 12.567187 13.028906 12 C 13.028906 11.432812 12.567187 10.971094 12 10.971094 C 11.432812 10.971094 10.971094 11.432812 10.971094 12 Z M 10.971094 12 " transform="matrix(1.666667,0,0,1.666667,4,4)"/>
<path style="fill-rule:nonzero;fill:rgb(5.882353%,5.882353%,5.882353%);fill-opacity:1;stroke-width:1.464;stroke-linecap:butt;stroke-linejoin:miter;stroke:rgb(100%,100%,100%);stroke-opacity:1;stroke-miterlimit:4;" d="M 15 4.000781 C 15 5.657812 13.657031 7.000781 12 7.000781 C 10.342969 7.000781 9 5.657812 9 4.000781 C 9 2.34375 10.342969 1.000781 12 1.000781 C 13.657031 1.000781 15 2.34375 15 4.000781 Z M 10.971094 4.000781 C 10.971094 4.567969 11.432812 5.027344 12 5.027344 C 12.567187 5.027344 13.028906 4.567969 13.028906 4.000781 C 13.028906 3.43125 12.567187 2.971875 12 2.971875 C 11.432812 2.971875 10.971094 3.43125 10.971094 4.000781 Z M 10.971094 4.000781 " transform="matrix(1.666667,0,0,1.666667,4,4)"/>
</g>
</svg>
