<?xml version="1.0" encoding="UTF-8"?>
<svg xmlns="http://www.w3.org/2000/svg" xmlns:xlink="http://www.w3.org/1999/xlink" width="32px" height="32px" viewBox="0 0 96 96" version="1.1">
<defs>
<linearGradient id="linear0" gradientUnits="userSpaceOnUse" x1="16.006" y1="2" x2="16.006" y2="30" gradientTransform="matrix(3,0,0,3,0,0)">
<stop offset="0" style="stop-color:rgb(6.666667%,11.372549%,18.039216%);stop-opacity:1;"/>
<stop offset="0.212" style="stop-color:rgb(1.960784%,9.411765%,22.352941%);stop-opacity:1;"/>
<stop offset="0.407" style="stop-color:rgb(3.921569%,10.588235%,28.235294%);stop-opacity:1;"/>
<stop offset="0.581" style="stop-color:rgb(7.45098%,18.039216%,38.431373%);stop-opacity:1;"/>
<stop offset="0.738" style="stop-color:rgb(7.843137%,29.411765%,49.411765%);stop-opacity:1;"/>
<stop offset="0.873" style="stop-color:rgb(7.45098%,39.215686%,59.215686%);stop-opacity:1;"/>
<stop offset="1" style="stop-color:rgb(7.45098%,52.941176%,72.156863%);stop-opacity:1;"/>
</linearGradient>
</defs>
<g id="surface1">
<path style=" stroke:none;fill-rule:nonzero;fill:url(#linear0);" d="M 7.707031 60.082031 C 12.902344 77.390625 28.960938 90 47.972656 90 C 71.183594 90 89.996094 71.195312 89.996094 48 C 89.996094 24.800781 71.183594 6 47.972656 6 C 25.699219 6 7.472656 23.316406 6.035156 45.210938 C 6.035156 51.5 6.035156 54.125 7.707031 60.082031 Z M 7.707031 60.082031 "/>
<path style=" stroke:none;fill-rule:nonzero;fill:rgb(100%,100%,100%);fill-opacity:1;" d="M 45.8125 37.6875 L 35.527344 52.617188 C 33.101562 52.507812 30.660156 53.195312 28.636719 54.523438 L 6.054688 45.234375 C 6.054688 45.234375 5.53125 53.828125 7.710938 60.230469 L 23.675781 66.8125 C 24.476562 70.390625 26.933594 73.53125 30.558594 75.042969 C 36.488281 77.519531 43.328125 74.695312 45.796875 68.765625 C 46.429688 67.246094 46.738281 65.613281 46.695312 63.964844 L 61.773438 53.464844 C 70.578125 53.464844 77.734375 46.292969 77.734375 37.484375 C 77.734375 28.671875 70.578125 21.5 61.773438 21.5 C 53.265625 21.5 45.332031 28.925781 45.8125 37.6875 Z M 43.339844 67.734375 C 41.429688 72.316406 36.160156 74.488281 31.582031 72.582031 C 29.46875 71.703125 27.871094 70.09375 26.953125 68.171875 L 32.148438 70.324219 C 35.527344 71.730469 39.402344 70.128906 40.808594 66.753906 C 42.21875 63.375 40.617188 59.496094 37.242188 58.089844 L 31.867188 55.867188 C 34.011719 55.050781 36.386719 55.085938 38.503906 55.96875 C 40.707031 56.882812 42.457031 58.640625 43.355469 60.851562 C 44.269531 63.054688 44.261719 65.535156 43.339844 67.734375 Z M 61.773438 48.128906 C 55.910156 48.128906 51.136719 43.355469 51.136719 37.484375 C 51.136719 31.613281 55.910156 26.835938 61.773438 26.835938 C 67.636719 26.835938 72.410156 31.613281 72.410156 37.484375 C 72.410156 43.355469 67.636719 48.128906 61.773438 48.128906 Z M 53.804688 37.464844 C 53.804688 33.046875 57.382812 29.464844 61.789062 29.464844 C 66.203125 29.464844 69.777344 33.046875 69.777344 37.464844 C 69.777344 41.882812 66.203125 45.460938 61.789062 45.460938 C 57.378906 45.460938 53.804688 41.882812 53.804688 37.464844 Z M 53.804688 37.464844 "/>
</g>
</svg>
