<svg xmlns="http://www.w3.org/2000/svg" width="128" height="128"><defs><linearGradient id="a" gradientUnits="userSpaceOnUse" x1="16.006" y1="2" x2="16.006" y2="30" gradientTransform="scale(4)"><stop offset="0" style="stop-color:#111d2e;stop-opacity:1"/><stop offset=".212" style="stop-color:#051839;stop-opacity:1"/><stop offset=".407" style="stop-color:#0a1b48;stop-opacity:1"/><stop offset=".581" style="stop-color:#132e62;stop-opacity:1"/><stop offset=".738" style="stop-color:#144b7e;stop-opacity:1"/><stop offset=".873" style="stop-color:#136497;stop-opacity:1"/><stop offset="1" style="stop-color:#1387b8;stop-opacity:1"/></linearGradient></defs><path style="stroke:none;fill-rule:nonzero;fill:url(#a)" d="M10.277 80.11C17.203 103.187 38.617 120 63.961 120c30.95 0 56.035-25.074 56.035-56 0-30.93-25.086-56-56.035-56C34.266 8 9.965 31.086 8.047 60.281c0 8.387 0 11.887 2.23 19.828Zm0 0"/><path style="stroke:none;fill-rule:nonzero;fill:#fff;fill-opacity:1" d="m61.082 50.25-13.71 19.906c-3.235-.144-6.49.77-9.188 2.543L8.074 60.313s-.699 11.457 2.207 19.992l21.285 8.777c1.067 4.773 4.344 8.961 9.18 10.977 7.906 3.3 17.027-.465 20.316-8.371a15.585 15.585 0 0 0 1.2-6.399l20.101-14c11.739 0 21.282-9.566 21.282-21.312 0-11.75-9.543-21.309-21.282-21.309-11.343 0-21.918 9.898-21.281 21.582Zm-3.293 40.063c-2.547 6.109-9.574 9.007-15.68 6.464-2.816-1.172-4.945-3.32-6.172-5.882l6.93 2.87c4.504 1.876 9.672-.261 11.543-4.761 1.88-4.504-.254-9.676-4.754-11.55l-7.164-2.966a11.927 11.927 0 0 1 8.844.137 11.91 11.91 0 0 1 6.473 6.508 11.945 11.945 0 0 1-.02 9.18Zm24.574-26.141c-7.816 0-14.18-6.367-14.18-14.195 0-7.825 6.364-14.196 14.18-14.196 7.82 0 14.184 6.371 14.184 14.196 0 7.828-6.363 14.195-14.184 14.195ZM71.738 49.953c0-5.89 4.77-10.668 10.649-10.668 5.883 0 10.652 4.778 10.652 10.668s-4.77 10.664-10.652 10.664c-5.88 0-10.649-4.773-10.649-10.664Zm0 0"/></svg>