<?xml version="1.0" encoding="UTF-8"?>
<svg xmlns="http://www.w3.org/2000/svg" xmlns:xlink="http://www.w3.org/1999/xlink" width="128px" height="128px" viewBox="0 0 128 128" version="1.1">
<g id="surface1">
<path style=" stroke:none;fill-rule:nonzero;fill:rgb(10.588235%,57.254902%,81.960784%);fill-opacity:1;" d="M 113.566406 15.542969 C 97.816406 22.066406 30.285156 50.035156 11.628906 57.660156 C -0.886719 62.542969 6.441406 67.121094 6.441406 67.121094 C 6.441406 67.121094 17.121094 70.785156 26.277344 73.53125 C 35.433594 76.277344 40.316406 73.226562 40.316406 73.226562 L 83.351562 44.230469 C 98.609375 33.855469 94.949219 42.398438 91.285156 46.0625 C 83.351562 54 70.226562 66.511719 59.238281 76.582031 C 54.355469 80.855469 56.796875 84.519531 58.933594 86.351562 C 66.871094 93.066406 88.539062 106.800781 89.761719 107.714844 C 96.207031 112.277344 108.890625 118.847656 110.820312 104.96875 C 110.820312 104.96875 118.449219 57.050781 118.449219 57.050781 C 120.890625 40.875 123.332031 25.921875 123.636719 21.648438 C 124.554688 11.269531 113.566406 15.542969 113.566406 15.542969 Z M 113.566406 15.542969 "/>
</g>
</svg>
