<?xml version="1.0" encoding="UTF-8"?>
<svg xmlns="http://www.w3.org/2000/svg" xmlns:xlink="http://www.w3.org/1999/xlink" width="px" height="px" viewBox="0 0 96 96" version="1.1">
<g id="surface1">
<path style=" stroke:none;fill-rule:nonzero;fill:rgb(10.588235%,57.254902%,81.960784%);fill-opacity:1;" d="M 85.175781 11.65625 C 73.363281 16.550781 22.714844 37.527344 8.722656 43.246094 C -0.664062 46.90625 4.832031 50.339844 4.832031 50.339844 C 4.832031 50.339844 12.839844 53.089844 19.707031 55.148438 C 26.574219 57.207031 30.238281 54.917969 30.238281 54.917969 L 62.511719 33.171875 C 73.957031 25.390625 71.210938 31.800781 68.464844 34.546875 C 62.511719 40.5 52.667969 49.882812 44.429688 57.4375 C 40.765625 60.640625 42.597656 63.390625 44.199219 64.761719 C 50.152344 69.800781 66.402344 80.101562 67.320312 80.785156 C 72.15625 84.207031 81.667969 89.136719 83.113281 78.726562 C 83.113281 78.726562 88.835938 42.789062 88.835938 42.789062 C 90.667969 30.65625 92.5 19.441406 92.726562 16.238281 C 93.417969 8.453125 85.175781 11.65625 85.175781 11.65625 Z M 85.175781 11.65625 "/>
</g>
</svg>
